<svg width="3000" height="1500" viewBox="0 0 3000 1500" fill="none" xmlns="http://www.w3.org/2000/svg">
<g clip-path="url(#clip0_201_39)">
<mask id="path-1-outside-1_201_39" maskUnits="userSpaceOnUse" x="450" y="307" width="2111" height="876" fill="black">
<rect fill="white" x="450" y="307" width="2111" height="876"/>
<path d="M781.8 1181.8C717 1181.8 659.8 1170.2 610.2 1147C560.6 1123.8 521.8 1090.6 493.8 1047.4C465.8 1004.2 451.8 952.2 451.8 891.4V857.8H607.8V891.4C607.8 941.8 623.4 979.8 654.6 1005.4C685.8 1030.2 728.2 1042.6 781.8 1042.6C836.2 1042.6 876.6 1031.8 903 1010.2C930.2 988.6 943.8 961 943.8 927.4C943.8 904.2 937 885.4 923.4 871C910.6 856.6 891.4 845 865.8 836.2C841 826.6 810.6 817.8 774.6 809.8L747 803.8C689.4 791 639.8 775 598.2 755.8C557.4 735.8 525.8 709.8 503.4 677.8C481.8 645.8 471 604.2 471 553C471 501.8 483 458.2 507 422.2C531.8 385.4 566.2 357.4 610.2 338.2C655 318.2 707.4 308.2 767.4 308.2C827.4 308.2 880.6 318.6 927 339.4C974.2 359.4 1011 389.8 1037.4 430.6C1064.6 470.6 1078.2 521 1078.2 581.8V617.8H922.2V581.8C922.2 549.8 915.8 524.2 903 505C891 485 873.4 470.6 850.2 461.8C827 452.2 799.4 447.4 767.4 447.4C719.4 447.4 683.8 456.6 660.6 475C638.2 492.6 627 517 627 548.2C627 569 632.2 586.6 642.6 601C653.8 615.4 670.2 627.4 691.8 637C713.4 646.6 741 655 774.6 662.2L802.2 668.2C862.2 681 914.2 697.4 958.2 717.4C1003 737.4 1037.8 763.8 1062.6 796.6C1087.4 829.4 1099.8 871.4 1099.8 922.6C1099.8 973.8 1086.6 1019 1060.2 1058.2C1034.6 1096.6 997.8 1127 949.8 1149.4C902.6 1171 846.6 1181.8 781.8 1181.8ZM1217.93 1165V325H1582.73C1635.53 325 1681.53 334.2 1720.73 352.6C1759.93 371 1790.33 397 1811.93 430.6C1833.53 464.2 1844.33 503.8 1844.33 549.4V563.8C1844.33 614.2 1832.33 655 1808.33 686.2C1784.33 717.4 1754.73 740.2 1719.53 754.6V776.2C1751.53 777.8 1776.33 789 1793.93 809.8C1811.53 829.8 1820.33 856.6 1820.33 890.2V1165H1661.93V913C1661.93 893.8 1656.73 878.2 1646.33 866.2C1636.73 854.2 1620.33 848.2 1597.13 848.2H1376.33V1165H1217.93ZM1376.33 704.2H1565.93C1603.53 704.2 1632.73 694.2 1653.53 674.2C1675.13 653.4 1685.93 626.2 1685.93 592.6V580.6C1685.93 547 1675.53 520.2 1654.73 500.2C1633.93 479.4 1604.33 469 1565.93 469H1376.33V704.2ZM2156.48 1165V469H1911.68V325H2559.68V469H2314.88V1165H2156.48Z"/>
</mask>
<path d="M781.8 1181.8C717 1181.8 659.8 1170.2 610.2 1147C560.6 1123.8 521.8 1090.6 493.8 1047.4C465.8 1004.2 451.8 952.2 451.8 891.4V857.8H607.8V891.4C607.8 941.8 623.4 979.8 654.6 1005.4C685.8 1030.2 728.2 1042.6 781.8 1042.6C836.2 1042.6 876.6 1031.8 903 1010.2C930.2 988.6 943.8 961 943.8 927.4C943.8 904.2 937 885.4 923.4 871C910.6 856.6 891.4 845 865.8 836.2C841 826.6 810.6 817.8 774.6 809.8L747 803.8C689.4 791 639.8 775 598.2 755.8C557.4 735.8 525.8 709.8 503.4 677.8C481.8 645.8 471 604.2 471 553C471 501.8 483 458.2 507 422.2C531.8 385.4 566.2 357.4 610.2 338.2C655 318.2 707.4 308.2 767.4 308.2C827.4 308.2 880.6 318.6 927 339.4C974.2 359.4 1011 389.8 1037.4 430.6C1064.6 470.6 1078.2 521 1078.2 581.8V617.8H922.2V581.8C922.2 549.8 915.8 524.2 903 505C891 485 873.4 470.6 850.2 461.8C827 452.2 799.4 447.4 767.4 447.4C719.4 447.4 683.8 456.6 660.6 475C638.2 492.6 627 517 627 548.2C627 569 632.2 586.6 642.6 601C653.8 615.4 670.2 627.4 691.8 637C713.4 646.6 741 655 774.6 662.2L802.2 668.2C862.2 681 914.2 697.4 958.2 717.4C1003 737.4 1037.8 763.8 1062.6 796.6C1087.4 829.4 1099.8 871.4 1099.8 922.6C1099.8 973.8 1086.6 1019 1060.2 1058.2C1034.6 1096.6 997.8 1127 949.8 1149.4C902.6 1171 846.6 1181.8 781.8 1181.8ZM1217.93 1165V325H1582.73C1635.53 325 1681.53 334.2 1720.73 352.6C1759.93 371 1790.33 397 1811.93 430.6C1833.53 464.2 1844.33 503.8 1844.33 549.4V563.8C1844.33 614.2 1832.33 655 1808.33 686.2C1784.33 717.4 1754.73 740.2 1719.53 754.6V776.2C1751.53 777.8 1776.33 789 1793.93 809.8C1811.53 829.8 1820.33 856.6 1820.33 890.2V1165H1661.93V913C1661.93 893.8 1656.73 878.2 1646.33 866.2C1636.73 854.2 1620.33 848.2 1597.13 848.2H1376.33V1165H1217.93ZM1376.33 704.2H1565.93C1603.53 704.2 1632.73 694.2 1653.53 674.2C1675.13 653.4 1685.93 626.2 1685.93 592.6V580.6C1685.93 547 1675.53 520.2 1654.73 500.2C1633.93 479.4 1604.33 469 1565.93 469H1376.33V704.2ZM2156.48 1165V469H1911.68V325H2559.68V469H2314.88V1165H2156.48Z" fill="#CBA0FF"/>
<path d="M610.2 1147L609.776 1147.91L609.776 1147.91L610.2 1147ZM493.8 1047.4L494.639 1046.86L494.639 1046.86L493.8 1047.4ZM451.8 857.8V856.8H450.8V857.8H451.8ZM607.8 857.8H608.8V856.8H607.8V857.8ZM654.6 1005.4L653.966 1006.17L653.972 1006.18L653.978 1006.18L654.6 1005.4ZM903 1010.2L902.378 1009.42L902.372 1009.42L902.367 1009.43L903 1010.2ZM923.4 871L922.653 871.664L922.663 871.676L922.673 871.687L923.4 871ZM865.8 836.2L865.439 837.133L865.457 837.139L865.475 837.146L865.8 836.2ZM774.6 809.8L774.817 808.824L774.812 808.823L774.6 809.8ZM747 803.8L746.783 804.776L746.788 804.777L747 803.8ZM598.2 755.8L597.76 756.698L597.77 756.703L597.781 756.708L598.2 755.8ZM503.4 677.8L502.571 678.359L502.576 678.366L502.581 678.373L503.4 677.8ZM507 422.2L506.171 421.641L506.168 421.645L507 422.2ZM610.2 338.2L610.6 339.117L610.608 339.113L610.2 338.2ZM927 339.4L926.591 340.312L926.6 340.317L926.61 340.321L927 339.4ZM1037.4 430.6L1036.56 431.143L1036.57 431.153L1036.57 431.162L1037.4 430.6ZM1078.2 617.8V618.8H1079.2V617.8H1078.2ZM922.2 617.8H921.2V618.8H922.2V617.8ZM903 505L902.143 505.514L902.155 505.535L902.168 505.555L903 505ZM850.2 461.8L849.818 462.724L849.831 462.73L849.845 462.735L850.2 461.8ZM660.6 475L661.218 475.786L661.221 475.783L660.6 475ZM642.6 601L641.789 601.585L641.8 601.6L641.811 601.614L642.6 601ZM774.6 662.2L774.812 661.223L774.81 661.222L774.6 662.2ZM802.2 668.2L801.988 669.177L801.991 669.178L802.2 668.2ZM958.2 717.4L957.786 718.31L957.792 718.313L958.2 717.4ZM1062.6 796.6L1063.4 795.997L1063.4 795.997L1062.6 796.6ZM1060.2 1058.2L1059.37 1057.64L1059.37 1057.65L1060.2 1058.2ZM949.8 1149.4L950.216 1150.31L950.223 1150.31L949.8 1149.4ZM781.8 1180.8C717.12 1180.8 660.069 1169.22 610.624 1146.09L609.776 1147.91C659.531 1171.18 716.88 1182.8 781.8 1182.8V1180.8ZM610.624 1146.09C561.182 1122.97 522.531 1089.89 494.639 1046.86L492.961 1047.94C521.069 1091.31 560.018 1124.63 609.776 1147.91L610.624 1146.09ZM494.639 1046.86C466.762 1003.85 452.8 952.042 452.8 891.4H450.8C450.8 952.357 464.838 1004.55 492.961 1047.94L494.639 1046.86ZM452.8 891.4V857.8H450.8V891.4H452.8ZM451.8 858.8H607.8V856.8H451.8V858.8ZM606.8 857.8V891.4H608.8V857.8H606.8ZM606.8 891.4C606.8 942.018 622.478 980.337 653.966 1006.17L655.234 1004.63C624.322 979.263 608.8 941.582 608.8 891.4H606.8ZM653.978 1006.18C685.407 1031.17 728.052 1043.6 781.8 1043.6V1041.6C728.348 1041.6 686.193 1029.23 655.222 1004.62L653.978 1006.18ZM781.8 1043.6C836.302 1043.6 876.975 1032.78 903.633 1010.97L902.367 1009.43C876.225 1030.82 836.098 1041.6 781.8 1041.6V1043.6ZM903.622 1010.98C931.051 989.201 944.8 961.317 944.8 927.4H942.8C942.8 960.683 929.349 987.999 902.378 1009.42L903.622 1010.98ZM944.8 927.4C944.8 903.991 937.932 884.93 924.127 870.313L922.673 871.687C936.068 885.87 942.8 904.409 942.8 927.4H944.8ZM924.147 870.336C911.196 855.765 891.825 844.089 866.125 835.254L865.475 837.146C890.975 845.911 910.004 857.435 922.653 871.664L924.147 870.336ZM866.161 835.267C841.3 825.644 810.849 816.831 774.817 808.824L774.383 810.776C810.351 818.769 840.7 827.556 865.439 837.133L866.161 835.267ZM774.812 808.823L747.212 802.823L746.788 804.777L774.388 810.777L774.812 808.823ZM747.217 802.824C689.668 790.035 640.139 774.055 598.619 754.892L597.781 756.708C639.461 775.945 689.132 791.965 746.783 804.776L747.217 802.824ZM598.64 754.902C557.967 734.964 526.508 709.067 504.219 677.227L502.581 678.373C525.092 710.533 556.833 736.636 597.76 756.698L598.64 754.902ZM504.229 677.241C482.771 645.452 472 604.065 472 553H470C470 604.335 480.829 646.148 502.571 678.359L504.229 677.241ZM472 553C472 501.961 483.96 458.562 507.832 422.755L506.168 421.645C482.04 457.838 470 501.639 470 553H472ZM507.829 422.759C532.514 386.129 566.759 358.247 610.6 339.117L609.8 337.283C565.641 356.553 531.086 384.671 506.171 421.641L507.829 422.759ZM610.608 339.113C655.254 319.182 707.51 309.2 767.4 309.2V307.2C707.29 307.2 654.746 317.218 609.792 337.287L610.608 339.113ZM767.4 309.2C827.284 309.2 880.341 319.58 926.591 340.312L927.409 338.487C880.859 317.62 827.516 307.2 767.4 307.2V309.2ZM926.61 340.321C973.636 360.247 1010.28 390.521 1036.56 431.143L1038.24 430.057C1011.72 389.079 974.764 358.553 927.39 338.479L926.61 340.321ZM1036.57 431.162C1063.63 470.958 1077.2 521.149 1077.2 581.8H1079.2C1079.2 520.851 1065.57 470.242 1038.23 430.038L1036.57 431.162ZM1077.2 581.8V617.8H1079.2V581.8H1077.2ZM1078.2 616.8H922.2V618.8H1078.2V616.8ZM923.2 617.8V581.8H921.2V617.8H923.2ZM923.2 581.8C923.2 549.676 916.776 523.862 903.832 504.445L902.168 505.555C914.824 524.538 921.2 549.924 921.2 581.8H923.2ZM903.858 504.485C891.734 484.28 873.95 469.739 850.555 460.865L849.845 462.735C872.85 471.461 890.266 485.72 902.143 505.514L903.858 504.485ZM850.582 460.876C827.233 451.214 799.497 446.4 767.4 446.4V448.4C799.303 448.4 826.767 453.186 849.818 462.724L850.582 460.876ZM767.4 446.4C719.304 446.4 683.436 455.613 659.979 474.216L661.221 475.783C684.164 457.587 719.496 448.4 767.4 448.4V446.4ZM659.982 474.214C637.316 492.023 626 516.727 626 548.2H628C628 517.273 639.084 493.177 661.218 475.786L659.982 474.214ZM626 548.2C626 569.173 631.246 586.987 641.789 601.585L643.411 600.414C633.154 586.213 628 568.827 628 548.2H626ZM641.811 601.614C653.137 616.177 669.687 628.266 691.394 637.914L692.206 636.086C670.713 626.534 654.463 614.623 643.389 600.386L641.811 601.614ZM691.394 637.914C713.078 647.551 740.75 655.969 774.39 663.178L774.81 661.222C741.25 654.031 713.722 645.649 692.206 636.086L691.394 637.914ZM774.388 663.177L801.988 669.177L802.412 667.223L774.812 661.223L774.388 663.177ZM801.991 669.178C861.939 681.967 913.867 698.347 957.786 718.31L958.614 716.49C914.533 696.453 862.461 680.033 802.409 667.222L801.991 669.178ZM957.792 718.313C1002.47 738.258 1037.12 764.561 1061.8 797.203L1063.4 795.997C1038.48 763.039 1003.53 736.542 958.608 716.487L957.792 718.313ZM1061.8 797.203C1086.44 829.791 1098.8 871.563 1098.8 922.6H1100.8C1100.8 871.237 1088.36 829.009 1063.4 795.997L1061.8 797.203ZM1098.8 922.6C1098.8 973.618 1085.65 1018.62 1059.37 1057.64L1061.03 1058.76C1087.55 1019.38 1100.8 973.982 1100.8 922.6H1098.8ZM1059.37 1057.65C1033.88 1095.87 997.236 1126.16 949.377 1148.49L950.223 1150.31C998.364 1127.84 1035.32 1097.33 1061.03 1058.75L1059.37 1057.65ZM949.384 1148.49C902.343 1170.02 846.491 1180.8 781.8 1180.8V1182.8C846.709 1182.8 902.857 1171.98 950.216 1150.31L949.384 1148.49ZM1217.93 1165H1216.93V1166H1217.93V1165ZM1217.93 325V324H1216.93V325H1217.93ZM1720.73 352.6L1720.31 353.505L1720.31 353.505L1720.73 352.6ZM1811.93 430.6L1812.78 430.059L1812.78 430.059L1811.93 430.6ZM1808.33 686.2L1809.13 686.81L1809.13 686.81L1808.33 686.2ZM1719.53 754.6L1719.16 753.674L1718.53 753.929V754.6H1719.53ZM1719.53 776.2H1718.53V777.151L1719.48 777.199L1719.53 776.2ZM1793.93 809.8L1793.17 810.446L1793.18 810.453L1793.18 810.461L1793.93 809.8ZM1820.33 1165V1166H1821.33V1165H1820.33ZM1661.93 1165H1660.93V1166H1661.93V1165ZM1646.33 866.2L1645.55 866.825L1645.57 866.84L1645.58 866.855L1646.33 866.2ZM1376.33 848.2V847.2H1375.33V848.2H1376.33ZM1376.33 1165V1166H1377.33V1165H1376.33ZM1376.33 704.2H1375.33V705.2H1376.33V704.2ZM1653.53 674.2L1654.23 674.921L1654.23 674.92L1653.53 674.2ZM1654.73 500.2L1654.03 500.907L1654.03 500.914L1654.04 500.921L1654.73 500.2ZM1376.33 469V468H1375.33V469H1376.33ZM1218.93 1165V325H1216.93V1165H1218.93ZM1217.93 326H1582.73V324H1217.93V326ZM1582.73 326C1635.42 326 1681.27 335.18 1720.31 353.505L1721.16 351.695C1681.8 333.22 1635.65 324 1582.73 324V326ZM1720.31 353.505C1759.35 371.832 1789.6 397.712 1811.09 431.141L1812.78 430.059C1791.07 396.288 1760.51 370.168 1721.16 351.695L1720.31 353.505ZM1811.09 431.141C1832.58 464.557 1843.33 503.964 1843.33 549.4H1845.33C1845.33 503.636 1834.49 463.842 1812.78 430.059L1811.09 431.141ZM1843.33 549.4V563.8H1845.33V549.4H1843.33ZM1843.33 563.8C1843.33 614.042 1831.37 654.609 1807.54 685.59L1809.13 686.81C1833.3 655.391 1845.33 614.358 1845.33 563.8H1843.33ZM1807.54 685.59C1783.65 716.655 1754.19 739.344 1719.16 753.674L1719.91 755.526C1755.28 741.056 1785.02 718.145 1809.13 686.81L1807.54 685.59ZM1718.53 754.6V776.2H1720.53V754.6H1718.53ZM1719.48 777.199C1751.26 778.788 1775.78 789.894 1793.17 810.446L1794.7 809.154C1776.89 788.105 1751.81 776.812 1719.58 775.201L1719.48 777.199ZM1793.18 810.461C1810.58 830.234 1819.33 856.778 1819.33 890.2H1821.33C1821.33 856.422 1812.48 829.366 1794.69 809.139L1793.18 810.461ZM1819.33 890.2V1165H1821.33V890.2H1819.33ZM1820.33 1164H1661.93V1166H1820.33V1164ZM1662.93 1165V913H1660.93V1165H1662.93ZM1662.93 913C1662.93 893.612 1657.68 877.763 1647.09 865.545L1645.58 866.855C1655.79 878.637 1660.93 893.988 1660.93 913H1662.93ZM1647.12 865.575C1637.24 853.237 1620.48 847.2 1597.13 847.2V849.2C1620.19 849.2 1636.22 855.163 1645.55 866.825L1647.12 865.575ZM1597.13 847.2H1376.33V849.2H1597.13V847.2ZM1375.33 848.2V1165H1377.33V848.2H1375.33ZM1376.33 1164H1217.93V1166H1376.33V1164ZM1376.33 705.2H1565.93V703.2H1376.33V705.2ZM1565.93 705.2C1603.71 705.2 1633.19 695.149 1654.23 674.921L1652.84 673.479C1632.28 693.251 1603.36 703.2 1565.93 703.2V705.2ZM1654.23 674.92C1676.05 653.908 1686.93 626.436 1686.93 592.6H1684.93C1684.93 625.964 1674.22 652.892 1652.84 673.48L1654.23 674.92ZM1686.93 592.6V580.6H1684.93V592.6H1686.93ZM1686.93 580.6C1686.93 546.777 1676.46 519.699 1655.43 499.479L1654.04 500.921C1674.61 520.701 1684.93 547.223 1684.93 580.6H1686.93ZM1655.44 499.493C1634.4 478.453 1604.52 468 1565.93 468V470C1604.15 470 1633.47 480.347 1654.03 500.907L1655.44 499.493ZM1565.93 468H1376.33V470H1565.93V468ZM1375.33 469V704.2H1377.33V469H1375.33ZM2156.48 1165H2155.48V1166H2156.48V1165ZM2156.48 469H2157.48V468H2156.48V469ZM1911.68 469H1910.68V470H1911.68V469ZM1911.68 325V324H1910.68V325H1911.68ZM2559.68 325H2560.68V324H2559.68V325ZM2559.68 469V470H2560.68V469H2559.68ZM2314.88 469V468H2313.88V469H2314.88ZM2314.88 1165V1166H2315.88V1165H2314.88ZM2157.48 1165V469H2155.48V1165H2157.48ZM2156.48 468H1911.68V470H2156.48V468ZM1912.68 469V325H1910.68V469H1912.68ZM1911.68 326H2559.68V324H1911.68V326ZM2558.68 325V469H2560.68V325H2558.68ZM2559.68 468H2314.88V470H2559.68V468ZM2313.88 469V1165H2315.88V469H2313.88ZM2314.88 1164H2156.48V1166H2314.88V1164Z" fill="black" mask="url(#path-1-outside-1_201_39)"/>
</g>
<defs>
<clipPath id="clip0_201_39">
<rect width="3000" height="1500" fill="white"/>
</clipPath>
</defs>
</svg>
